<svg width="57" height="20" viewBox="0 0 57 20" fill="none" xmlns="http://www.w3.org/2000/svg">
<g opacity="0.4">
<path d="M29.8186 7.26944C30.0934 7.26944 30.2766 7.17638 30.2766 6.89721C30.2766 6.80415 30.3682 6.15275 30.9177 5.78053C30.9177 6.15275 31.0093 6.52498 31.1925 6.89721C31.3757 7.17638 31.7421 7.45555 32.2 7.45555C32.2916 7.45555 32.3832 7.45555 32.4748 7.45555C33.0243 7.26944 33.1159 6.71109 33.1159 6.52498C33.1159 6.33887 33.2075 5.68747 32.7496 5.22218C32.5664 5.03607 32.4748 5.03607 32.2916 4.94301C32.658 4.7569 32.9327 4.84996 32.9327 4.84996C33.1159 4.94301 33.2991 5.03607 33.3907 5.12913C33.4823 5.22218 33.6655 5.31524 33.7571 5.50135C33.9403 5.68747 34.1234 5.68747 34.3066 5.59441C34.5814 5.31524 34.673 5.03607 34.4898 4.84996C34.3066 4.66384 34.215 4.47773 34.0318 4.29161C33.8487 4.19856 33.5739 3.91939 33.2075 3.91939C33.1159 3.91939 32.3832 3.73327 31.7421 4.19856C31.5589 4.38467 31.3757 4.47773 31.2841 4.7569C31.1925 4.7569 31.0093 4.7569 30.8261 4.84996C30.7346 4.84996 30.643 4.94301 30.5514 5.03607C29.7271 5.59441 29.5439 6.61804 29.5439 6.80415C29.4523 7.08332 29.5439 7.26944 29.8186 7.26944ZM31.8337 5.59441C32.0168 5.59441 32.1084 5.59441 32.2 5.68747C32.3832 5.87358 32.2916 6.15275 32.2916 6.24581C32.2916 6.52498 32.2 6.52498 32.2 6.52498C32.1084 6.52498 32.0168 6.43192 31.9252 6.33887C31.8337 6.15275 31.7421 5.87358 31.8337 5.59441Z" fill="white"/>
</g>
<path d="M36.8981 9.65947C37.0863 9.56771 37.1804 9.56771 37.3686 9.65947C37.8391 9.84298 38.3097 9.84298 38.7802 9.56771C39.533 9.20068 39.8153 8.19134 39.4389 7.45728L39.3448 7.36552C39.2507 7.18201 39.2507 7.09025 39.2507 6.90673C39.4389 6.08091 38.7802 5.25509 38.0274 5.16333C37.1804 4.97982 36.3335 5.53036 36.1453 6.35619C36.1453 6.5397 35.9571 6.72322 35.7689 6.81497C35.6748 6.81497 35.5807 6.90673 35.5807 6.99849C35.2984 7.18201 35.1102 7.45728 35.0161 7.82431C34.922 8.09958 34.922 8.46662 35.0161 8.74189C35.2043 9.47595 36.0512 9.93474 36.8981 9.65947Z" fill="white"/>
<path opacity="0.4" d="M35.9687 8.80799C35.8795 8.63275 35.8795 8.36989 35.9687 8.10704C36.0579 7.84418 36.1472 7.66894 36.3257 7.4937C36.4149 7.4937 36.4149 7.40608 36.5042 7.40608C36.6827 7.31846 36.7719 7.23084 36.7719 7.0556C36.8612 6.44226 37.4859 6.00417 38.1106 6.17941C38.7353 6.26702 39.0923 6.88036 39.0031 7.4937C39.0031 7.58132 39.0031 7.75656 39.0923 7.84418V7.9318C39.3601 8.45751 39.1816 9.15847 38.6461 9.50895C38.4676 9.59657 38.1106 9.59657 37.7536 9.50895C37.6644 9.50895 37.5751 9.42133 37.3966 9.50895C36.8612 9.68419 36.1472 9.33371 35.9687 8.80799ZM37.5751 10.4728C38.1106 10.648 38.7354 10.5604 39.2708 10.2975C40.3418 9.77181 40.6988 8.45751 40.0741 7.40608C40.1633 6.26702 39.2708 5.21559 38.1106 5.12797C37.6644 5.12797 37.3074 5.21559 36.9504 5.39083C36.4149 5.65369 36.0579 6.09179 35.9687 6.6175C34.8977 7.31846 34.63 8.63275 35.344 9.59657C35.7902 10.2975 36.6827 10.648 37.5751 10.4728Z" fill="white"/>
<path d="M0 0H3.38916L10.0954 10.8341L16.7295 0H20.1907V19.4142H15.8641V8.79817L11.3933 16.2875H8.79738L4.32658 8.79817V19.4142H0V0Z" fill="white"/>
<path d="M33.5476 13.4345C33.5476 16.7737 31.1402 19.1811 27.7234 19.1811C24.3841 19.1811 21.8991 16.7737 21.8991 13.4345C21.8991 10.0953 24.3065 7.68792 27.7234 7.68792C31.1402 7.76558 33.5476 10.1729 33.5476 13.4345ZM25.1607 13.4345C25.1607 15.143 26.1702 16.3078 27.7234 16.3078C29.2765 16.3078 30.286 15.0653 30.286 13.4345C30.286 11.8037 29.2765 10.5612 27.7234 10.5612C26.2479 10.5612 25.1607 11.8037 25.1607 13.4345Z" fill="white"/>
<path opacity="0.4" d="M35.722 18.8706H38.2847L39.4495 13.9782H36.4209L35.722 18.8706Z" fill="white"/>
<path d="M41.5463 2.48516H47.9918C53.5831 2.48516 57 5.90205 57 10.8721C57 15.8421 53.5831 19.1813 47.9918 19.1813H41.5463V2.48516ZM48.0695 15.9198C51.2534 15.9198 53.1948 14.1337 53.1948 10.8721C53.1948 7.6105 51.2534 5.8244 48.0695 5.8244H45.2738V15.9198H48.0695Z" fill="white"/>
</svg>
