<svg width="56" height="18" viewBox="0 0 56 18" fill="none" xmlns="http://www.w3.org/2000/svg">
<path d="M0 0.339478H3L8.9 9.83948L14.8 0.339478H17.8V17.3395H14V8.03948L10 14.5395H7.8L3.8 8.03948V17.3395H0V0.339478Z" fill="white"/>
<path d="M32.2 11.2395C32.2 14.9395 29.5 17.6395 25.7 17.6395C21.9 17.6395 19.2 14.9395 19.2 11.2395C19.2 7.53948 21.9 4.83948 25.7 4.83948C29.5 4.83948 32.2 7.53948 32.2 11.2395ZM22.7999 11.2395C22.7999 13.1395 24 14.4395 25.7 14.4395C27.5 14.4395 28.6 13.0395 28.6 11.2395C28.6 9.33948 27.4 8.03948 25.7 8.03948C24 8.03948 22.7999 9.33948 22.7999 11.2395Z" fill="white"/>
<path d="M46.9 0.53949C52.7 0.53949 56 3.93949 56 8.93949C56 13.9395 52.7 17.2395 46.9 17.2395H41V0.53949H46.9ZM53.8 8.83949C53.8 4.73949 51.2 2.43949 47 2.43949H43.2V15.2395H47C51.2 15.2395 53.8 12.9395 53.8 8.83949Z" fill="white"/>
<path d="M28.7 3.63951C29 3.63951 29.2 3.53951 29.2 3.23951C29.2 3.13951 29.3 2.43951 29.9 2.03951C29.9 2.43951 30 2.83951 30.2 3.23951C30.4 3.53951 30.8 3.83951 31.3 3.83951C31.4 3.83951 31.5 3.83951 31.6 3.83951C32.2 3.63951 32.3 3.03951 32.3 2.83951C32.3 2.63951 32.4 1.93951 31.9 1.43951C31.7 1.23951 31.6 1.23951 31.4 1.13951C31.8 0.939506 32.1 1.03951 32.1 1.03951C32.3 1.13951 32.5 1.23951 32.6 1.33951C32.7 1.43951 32.9 1.53951 33 1.73951C33.2 1.93951 33.4 1.93951 33.6 1.83951C33.9 1.53951 34 1.23951 33.8 1.03951C33.6 0.839506 33.5 0.639506 33.3 0.439506C33.1 0.339506 32.8001 0.0395062 32.4001 0.0395062C32.3001 0.0395062 31.5 -0.160494 30.8 0.339506C30.6 0.539506 30.4 0.639506 30.3 0.939506C30.2 0.939506 30 0.939506 29.8 1.03951C29.7 1.03951 29.6 1.13951 29.5 1.23951C28.6 1.83951 28.4 2.93951 28.4 3.13951C28.3 3.43951 28.4 3.63951 28.7 3.63951ZM30.9 1.83951C31.1 1.83951 31.2 1.83951 31.3 1.93951C31.5 2.13951 31.4 2.43951 31.4 2.53951C31.4 2.83951 31.3 2.83951 31.3 2.83951C31.2 2.83951 31.1 2.73951 31 2.63951C30.9 2.43951 30.8 2.13951 30.9 1.83951Z" fill="#040000"/>
<path d="M36.7 6.33948C36.9 6.23948 37 6.23948 37.2 6.33948C37.7 6.53948 38.2 6.53948 38.7 6.23948C39.5 5.83948 39.8 4.73948 39.4 3.93948L39.3 3.83948C39.2 3.63948 39.2 3.53948 39.2 3.33948C39.4 2.43948 38.7 1.53948 37.9 1.43948C37 1.23948 36.1 1.83948 35.9 2.73948C35.9 2.93948 35.7 3.13948 35.5 3.23948C35.4 3.23948 35.3 3.33948 35.3 3.43948C35 3.63948 34.8 3.93948 34.7 4.33948C34.6 4.63948 34.6 5.03948 34.7 5.33948C34.9 6.13948 35.8 6.63948 36.7 6.33948Z" fill="#F5E8A2"/>
<path d="M35.2 5.13948C35.1 4.93948 35.1 4.63948 35.2 4.33948C35.3 4.03948 35.4 3.83948 35.6 3.63948C35.7 3.63948 35.7 3.53948 35.8 3.53948C36 3.43948 36.1 3.33948 36.1 3.13948C36.2 2.43948 36.9 1.93948 37.6 2.13948C38.3 2.23948 38.7 2.93948 38.6 3.63948C38.6 3.73948 38.6 3.93948 38.7 4.03948V4.13948C39 4.73948 38.8 5.53948 38.2 5.93948C38 6.03948 37.6 6.03948 37.2 5.93948C37.1 5.93948 37 5.83948 36.8 5.93948C36.2 6.13948 35.4 5.73948 35.2 5.13948ZM37 7.03948C37.6 7.23948 38.3 7.13948 38.9 6.83948C40.1 6.23948 40.5 4.73948 39.8 3.53948C39.9 2.23948 38.9 1.03948 37.6 0.939484C37.1 0.939484 36.7 1.03948 36.3 1.23948C35.7 1.53948 35.3 2.03948 35.2 2.63948C34 3.43948 33.7 4.93948 34.5 6.03948C35 6.83948 36 7.23948 37 7.03948Z" fill="#040000"/>
<path d="M36.9 16.1395L34.6 16.2395L35.4 10.3395H38.7L36.9 16.1395Z" fill="#85C5C6"/>
</svg>
