<svg width="56" height="18" viewBox="0 0 56 18" fill="none" xmlns="http://www.w3.org/2000/svg">
<path d="M0 0.339508H3L8.9 9.83951L14.8 0.339508H17.8V17.3395H14V8.03951L10 14.5395H7.8L3.8 8.03951V17.3395H0V0.339508Z" fill="#B5C54E"/>
<path d="M32.2 11.2395C32.2 14.9395 29.5 17.6395 25.7 17.6395C21.9 17.6395 19.2 14.9395 19.2 11.2395C19.2 7.53951 21.9 4.83951 25.7 4.83951C29.5 4.83951 32.2 7.53951 32.2 11.2395ZM22.7999 11.2395C22.7999 13.1395 24 14.4395 25.7 14.4395C27.5 14.4395 28.6 13.0395 28.6 11.2395C28.6 9.33951 27.4 8.03951 25.7 8.03951C24 8.03951 22.7999 9.33951 22.7999 11.2395Z" fill="#B5C54E"/>
<path d="M46.9 0.539505C52.7 0.539505 56 3.9395 56 8.9395C56 13.9395 52.7 17.2395 46.9 17.2395H41V0.539505H46.9ZM53.8 8.83951C53.8 4.73951 51.2 2.43951 47 2.43951H43.2V15.2395H47C51.2 15.2395 53.8 12.9395 53.8 8.83951Z" fill="#B5C54E"/>
<path d="M28.7 3.63951C29 3.63951 29.2 3.53951 29.2 3.23951C29.2 3.13951 29.3 2.43951 29.9 2.03951C29.9 2.43951 30 2.83951 30.2 3.23951C30.4 3.53951 30.8 3.83951 31.3 3.83951C31.4 3.83951 31.5 3.83951 31.6 3.83951C32.2 3.63951 32.3 3.03951 32.3 2.83951C32.3 2.63951 32.4 1.93951 31.9 1.43951C31.7 1.23951 31.6 1.23951 31.4 1.13951C31.8 0.939506 32.1 1.03951 32.1 1.03951C32.3 1.13951 32.5 1.23951 32.6 1.33951C32.7 1.43951 32.9 1.53951 33 1.73951C33.2 1.93951 33.4 1.93951 33.6 1.83951C33.9 1.53951 34 1.23951 33.8 1.03951C33.6 0.839506 33.5 0.639506 33.3 0.439506C33.1 0.339506 32.8001 0.0395062 32.4001 0.0395062C32.3001 0.0395062 31.5 -0.160494 30.8 0.339506C30.6 0.539506 30.4 0.639506 30.3 0.939506C30.2 0.939506 30 0.939506 29.8 1.03951C29.7 1.03951 29.6 1.13951 29.5 1.23951C28.6 1.83951 28.4 2.93951 28.4 3.13951C28.3 3.43951 28.4 3.63951 28.7 3.63951ZM30.9 1.83951C31.1 1.83951 31.2 1.83951 31.3 1.93951C31.5 2.13951 31.4 2.43951 31.4 2.53951C31.4 2.83951 31.3 2.83951 31.3 2.83951C31.2 2.83951 31.1 2.73951 31 2.63951C30.9 2.43951 30.8 2.13951 30.9 1.83951Z" fill="#040000"/>
<path d="M36.7 6.33951C36.9 6.23951 37 6.23951 37.2 6.33951C37.7 6.53951 38.2 6.53951 38.7 6.23951C39.5 5.83951 39.8 4.73951 39.4 3.93951L39.3 3.83951C39.2 3.63951 39.2 3.53951 39.2 3.33951C39.4 2.43951 38.7 1.53951 37.9 1.43951C37 1.23951 36.1 1.83951 35.9 2.73951C35.9 2.93951 35.7 3.13951 35.5 3.23951C35.4 3.23951 35.3 3.33951 35.3 3.43951C35 3.63951 34.8 3.93951 34.7 4.33951C34.6 4.63951 34.6 5.03951 34.7 5.33951C34.9 6.13951 35.8 6.63951 36.7 6.33951Z" fill="#F5E8A2"/>
<path d="M35.2 5.1395C35.1 4.9395 35.1 4.6395 35.2 4.3395C35.3 4.0395 35.4 3.8395 35.6 3.6395C35.7 3.6395 35.7 3.5395 35.8 3.5395C36 3.4395 36.1 3.3395 36.1 3.1395C36.2 2.4395 36.9 1.9395 37.6 2.1395C38.3 2.2395 38.7 2.9395 38.6 3.6395C38.6 3.7395 38.6 3.9395 38.7 4.0395V4.1395C39 4.7395 38.8 5.5395 38.2 5.9395C38 6.0395 37.6 6.0395 37.2 5.9395C37.1 5.9395 37 5.8395 36.8 5.9395C36.2 6.1395 35.4 5.7395 35.2 5.1395ZM37 7.0395C37.6 7.2395 38.3 7.1395 38.9 6.8395C40.1 6.2395 40.5 4.7395 39.8 3.5395C39.9 2.2395 38.9 1.0395 37.6 0.939499C37.1 0.939499 36.7 1.0395 36.3 1.2395C35.7 1.5395 35.3 2.0395 35.2 2.6395C34 3.4395 33.7 4.9395 34.5 6.0395C35 6.8395 36 7.2395 37 7.0395Z" fill="#040000"/>
<path d="M36.9 16.1395L34.6 16.2395L35.4 10.3395H38.7L36.9 16.1395Z" fill="#85C5C6"/>
</svg>
