<svg width="193" height="208" viewBox="0 0 193 208" fill="none" xmlns="http://www.w3.org/2000/svg">
<path d="M159.722 90.8924L130.254 73.9502L125.872 96.7879C125.708 97.5892 125.05 98.1616 124.283 98.1616H95.0338C94.8695 98.2188 94.7052 98.276 94.4861 98.276C94.267 98.276 94.1026 98.2188 93.9383 98.1616H66.1129C65.346 98.1616 64.634 97.5892 64.4696 96.7306L60.5806 74.7515L32.5909 90.8924L96.1293 127.524L159.722 90.8924Z" fill="#C1AB94"/>
<path d="M182.563 133.535C182.454 133.649 182.344 133.764 182.18 133.821C182.07 133.878 178.784 135.824 173.307 139.316C158.463 148.703 127.186 169.194 97.17 193.977C97.17 193.977 97.17 193.977 97.1152 193.977C97.0604 194.035 97.0057 194.035 96.9509 194.092L96.8961 194.149C96.8961 194.149 96.8961 194.149 96.8413 194.149H96.7866C96.7318 194.206 96.6222 194.206 96.5675 194.264C96.5127 194.264 96.5127 194.264 96.4579 194.264C96.3484 194.264 96.2388 194.321 96.1293 194.321C96.0197 194.321 95.9102 194.321 95.8006 194.264C95.7459 194.264 95.7459 194.264 95.6911 194.264C95.6363 194.264 95.5268 194.206 95.472 194.149H95.4172C95.4172 194.149 95.4172 194.149 95.3624 194.149L95.3077 194.092C95.2529 194.035 95.1981 194.035 95.1433 193.977H95.0886C65.0721 169.194 33.8507 148.703 18.952 139.316C13.4198 135.824 10.1881 133.878 10.0785 133.821C9.969 133.764 9.85945 133.649 9.7499 133.535C9.3117 133.191 9.03783 133.42 8.92828 133.535L3.39606 139.087C7.94234 141.72 37.9588 159.177 63.8123 178.237C75.2054 186.651 85.7221 195.294 92.9524 203.193C92.9524 203.193 94.3217 204.624 96.1293 204.624C97.9368 204.624 99.3062 203.193 99.3062 203.193C106.536 195.351 117.053 186.651 128.446 178.237C154.3 159.177 184.316 141.72 188.862 139.087L183.33 133.535C183.056 133.306 182.728 133.42 182.563 133.535Z" fill="white"/>
<path d="M191.273 136.797L185.576 131.073C184.261 129.757 182.728 129.757 181.577 130.214C171.389 120.255 165.419 99.3064 164.762 96.9596V90.8352C164.762 90.6635 164.762 90.5491 164.707 90.3773C164.707 90.3201 164.652 90.2629 164.652 90.2629C164.597 90.1484 164.597 90.0912 164.543 89.9767C164.488 89.9195 164.488 89.8622 164.433 89.805C164.378 89.7477 164.323 89.6333 164.269 89.576C164.214 89.5188 164.159 89.5188 164.104 89.4616C164.05 89.4043 163.995 89.3471 163.94 89.3471L130.966 70.4015L134.91 49.9106C139.237 47.9073 142.085 44.1869 142.249 40.123C142.249 40.123 142.249 40.0658 142.249 40.0086C142.249 38.9211 142.085 33.3118 137.594 31.1368C136.06 30.3927 134.581 30.2782 133.431 30.3927C133.54 29.5914 133.54 28.7901 133.485 27.9315C133.321 24.9552 132.116 22.494 130.309 21.1775C127.625 19.2314 123.9 19.117 120.613 20.6624C120.504 17.5716 119.135 14.538 116.779 12.5347C113.383 9.61559 108.563 8.98598 104.4 10.7603C102.867 6.29583 98.5941 3.26226 93.9383 3.54844C90.597 3.83463 87.5844 5.7807 85.8864 8.6998C83.0929 5.7807 79.2587 4.17805 75.3149 4.46424C69.7279 4.92214 65.0173 8.98598 63.5932 14.4235C60.471 13.9084 57.5132 14.5952 55.2127 16.3123C51.5428 19.0597 51.2142 23.3525 51.1046 24.7262V24.8407V24.8979C50.9403 28.3894 52.2549 30.9651 53.186 32.396C51.8714 33.5408 50.8855 35.0289 50.3925 36.746C49.6257 39.379 50.0639 42.3553 51.5976 44.9882C52.6931 46.877 54.2815 48.4224 56.1439 49.3955C56.1439 49.4527 56.1439 49.51 56.1439 49.5672L58.061 60.5567L59.9233 71.0884L28.3732 89.2898C28.3184 89.3471 28.2636 89.4043 28.2089 89.4616C28.1541 89.5188 28.0993 89.5188 28.0445 89.576C27.9898 89.6333 27.935 89.6905 27.8802 89.805C27.8254 89.8622 27.8254 89.9195 27.7707 89.9195C27.7159 89.9767 27.7159 90.0912 27.6611 90.2056C27.6611 90.2629 27.6063 90.3201 27.6063 90.3201C27.5516 90.4918 27.5516 90.6063 27.5516 90.778V96.9024C26.8943 99.2491 20.9239 120.198 10.7358 130.157C9.53076 129.699 7.99708 129.699 6.73726 131.016L0.985941 136.74C0.821617 136.911 0 137.884 0 139.201C0 139.773 0.164323 140.689 0.985941 141.49C1.09549 141.605 1.20504 141.662 1.31459 141.776C1.97188 142.12 66.4415 179.21 90.5422 205.539C90.6518 205.653 92.8428 208 96.0745 208C99.3062 208 101.552 205.653 101.607 205.539C125.707 179.267 190.177 142.177 190.834 141.834C190.944 141.776 191.053 141.662 191.163 141.547C191.985 140.746 192.149 139.83 192.149 139.258C192.313 137.942 191.492 137.026 191.273 136.797ZM165.2 108.751C165.529 109.552 165.857 110.41 166.186 111.269C166.186 111.326 166.241 111.383 166.241 111.441C166.898 113.043 167.61 114.703 168.432 116.42C168.432 116.42 168.432 116.42 168.432 116.478C168.815 117.279 169.198 118.023 169.582 118.824C170.075 119.74 170.568 120.713 171.061 121.629C171.061 121.686 171.116 121.686 171.116 121.743C171.882 123.06 172.649 124.434 173.526 125.693C174.347 126.895 175.169 128.097 176.045 129.241C176.155 129.356 176.264 129.528 176.374 129.642C177.031 130.443 177.688 131.245 178.401 131.989C178.455 132.046 178.51 132.103 178.51 132.161C177.853 132.561 177.031 133.076 176.045 133.706C175.224 134.221 174.292 134.793 173.252 135.423C172.375 135.938 171.444 136.568 170.458 137.197C169.856 137.598 169.253 137.999 168.596 138.399C167.829 138.915 167.007 139.43 166.131 139.945C164.981 140.689 163.721 141.49 162.406 142.349C162.023 142.635 161.585 142.864 161.201 143.15C160.161 143.837 159.065 144.524 157.97 145.268C157.422 145.611 156.874 146.012 156.272 146.413C155.395 146.985 154.519 147.557 153.588 148.187C152.821 148.702 152.109 149.217 151.342 149.732C149.918 150.705 148.439 151.678 146.96 152.709C146.796 152.823 146.577 152.938 146.412 153.109C145.262 153.911 144.112 154.655 142.961 155.456C141.811 156.257 140.661 157.059 139.511 157.86C139.292 158.032 139.018 158.204 138.799 158.375C138.032 158.89 137.32 159.405 136.553 159.921C135.129 160.951 133.705 161.924 132.226 163.011C132.007 163.126 131.842 163.298 131.623 163.469C130.528 164.271 129.432 165.072 128.282 165.873C126.912 166.904 125.488 167.934 124.064 168.964C123.297 169.536 122.531 170.109 121.764 170.681C120.559 171.54 119.354 172.456 118.149 173.371C117.71 173.715 117.272 174.058 116.834 174.344C115.848 175.088 114.862 175.833 113.931 176.577C113.109 177.206 112.233 177.893 111.411 178.523C110.809 178.981 110.206 179.439 109.549 179.954C108.673 180.64 107.851 181.27 106.975 181.957C106.263 182.529 105.496 183.102 104.784 183.674C103.852 184.418 102.976 185.105 102.045 185.849C101.223 186.479 100.456 187.108 99.6348 187.795C98.9775 188.31 98.3202 188.883 97.6629 189.398V186.021V183.674V178.523V173.371V171.025V165.415V163.069V157.917V152.766V150.419V144.81V142.463V137.312V137.083L99.6348 135.938L102.264 134.45L106.263 132.161L111.904 128.898L114.15 127.582L116.834 126.036L118.751 124.949L121.764 123.232L124.119 121.858L126.693 120.37L129.651 118.653L133.102 116.649L134.307 115.962L136.608 114.646L142.085 111.498L146.138 109.151L148.987 107.549L151.451 106.118L154.3 104.458L155.943 103.485L156.326 103.256L159.942 101.138L162.023 99.936C162.132 100.279 162.242 100.68 162.406 101.138C162.735 102.225 163.173 103.599 163.721 105.087C164.214 106.118 164.652 107.434 165.2 108.751ZM30.838 93.8116L94.5408 130.501V132.962L30.838 96.2156V93.8116ZM97.7725 130.443L161.475 93.7543V96.2156L97.7725 132.905V130.443ZM92.8428 94.6701H83.2572L82.1617 86.3707C82.819 86.5425 83.5311 86.6569 84.2979 86.6569H92.8428V94.6701ZM131.294 51.1126L129.816 58.6107H111.466H94.4312H77.0129H61.0188L59.7042 51.1126H131.294ZM78.7109 77.4417C78.7109 74.2364 81.1758 71.6608 84.2432 71.6608H103.743C106.81 71.6608 109.275 74.2364 109.275 77.4417C109.275 80.647 106.81 83.2227 103.743 83.2227H84.2432C81.2306 83.2227 78.7109 80.647 78.7109 77.4417ZM78.9848 62.0449H92.8428V68.2265H84.2979C82.7095 68.2265 81.2306 68.6844 79.9708 69.4285L78.9848 62.0449ZM108.837 69.8864C107.413 68.7989 105.66 68.1693 103.743 68.1693H96.1292V61.9877H109.713L108.837 69.8864ZM75.6436 62.0449L76.9582 72.2331C75.9722 73.7213 75.4245 75.4957 75.4245 77.4417C75.4245 80.2464 76.6295 82.822 78.5466 84.4819L79.8612 94.6701H67.3726L61.6213 62.0449H75.6436V62.0449ZM96.1292 86.6569H103.743C104.948 86.6569 106.098 86.428 107.084 85.9701L106.153 94.6701H96.0745V86.6569H96.1292ZM110.754 83.051C111.904 81.5056 112.616 79.5595 112.616 77.4417C112.616 76.068 112.288 74.7516 111.795 73.5496L113 62.0449H129.213L122.914 94.6701H109.494L110.754 83.051ZM54.4458 43.3283C53.4051 41.554 53.0765 39.4934 53.5695 37.8336C54.3363 35.0862 57.1846 33.1973 60.3615 33.2546C61.2927 33.2546 62.0047 32.5105 62.0595 31.5947C62.0595 30.6217 61.3474 29.8776 60.471 29.8203C58.9374 29.7631 57.4037 30.1065 56.0891 30.6789C55.377 29.6486 54.3911 27.6453 54.5006 25.1841V25.0696C54.6102 23.9249 54.8293 20.9486 57.2941 19.117C59.8137 17.1709 62.8811 17.686 64.4696 18.1439L64.6339 18.2012C65.0721 18.3157 65.5651 18.2584 65.9485 17.9722C66.3319 17.686 66.6058 17.2854 66.6606 16.7702C67.2631 12.0196 71.0425 8.29913 75.6983 7.95571C79.423 7.66952 82.9834 9.61559 85.0648 12.9354C85.3934 13.5077 86.0507 13.7939 86.708 13.6794C87.3653 13.565 87.8583 13.1071 88.0226 12.4202C88.8442 9.44388 91.3639 7.21163 94.3217 6.98268C97.9368 6.75373 101.388 9.67283 101.826 13.3932C101.881 13.9656 102.264 14.4808 102.757 14.7097C103.25 14.9387 103.852 14.9387 104.345 14.5952C107.687 12.4202 112.014 12.6492 114.862 15.0531C117.163 17.0564 118.094 20.4334 117.108 23.467C116.889 24.2111 117.163 25.0124 117.765 25.4703C118.422 25.871 119.244 25.8137 119.792 25.2986C122.64 22.494 126.474 22.3795 128.611 23.9249C129.596 24.6117 130.254 26.1572 130.363 28.046C130.528 30.4499 129.761 32.7394 128.391 33.9987C127.351 35.0289 125.872 35.2006 124.941 35.2579H124.722C123.845 35.3724 123.133 36.1737 123.243 37.1467C123.352 38.0053 124.064 38.6921 124.886 38.6921C124.941 38.6921 124.995 38.6921 125.05 38.6921H125.269C126.42 38.5776 128.775 38.3487 130.637 36.5171C131.404 35.8303 132.061 34.9145 132.554 33.8842C133.157 33.7125 134.8 33.3118 136.388 34.1131C139.072 35.3724 139.182 39.15 139.182 39.8369C139.018 42.8704 136.388 45.7895 132.609 47.106C132.335 47.2205 132.116 47.3349 131.952 47.5066H60.7449C60.5258 47.2777 60.2519 47.106 59.8685 47.0488C57.4584 46.7053 55.5961 45.3316 54.4458 43.3283ZM60.5806 74.7516L64.4696 96.7307C64.6339 97.532 65.2912 98.1616 66.1128 98.1616H93.9383C94.1026 98.2189 94.2669 98.2761 94.486 98.2761C94.7051 98.2761 94.8694 98.2189 95.0337 98.1616H124.283C125.05 98.1616 125.762 97.5892 125.872 96.7879L130.254 73.9503L159.722 90.8925L96.184 127.524L32.6456 90.8925L60.5806 74.7516ZM13.8032 131.874C14.7343 130.901 15.6107 129.871 16.4323 128.784C17.0896 127.925 17.7469 127.066 18.3495 126.151C18.7877 125.521 19.1711 124.891 19.6093 124.205C20.157 123.346 20.65 122.487 21.143 121.572C21.5811 120.77 22.0193 119.969 22.4575 119.11C22.9505 118.195 23.3887 117.279 23.8269 116.42C24.2103 115.619 24.539 114.875 24.8676 114.074C25.3058 113.101 25.6892 112.185 26.0727 111.269C26.4561 110.41 26.7847 109.552 27.0586 108.751C27.8254 106.804 28.428 104.973 28.9757 103.427C29.2496 102.512 29.5235 101.71 29.7425 101.023C29.8521 100.566 30.0164 100.165 30.126 99.8215L32.2074 101.023L33.0838 101.539L36.7537 103.656L38.0135 104.4L40.7522 105.946L42.9432 107.205L50.0639 111.326L57.7323 115.733L58.9921 116.478L59.9781 117.05L63.648 119.168L67.5917 121.457L67.9751 121.686L72.5214 124.319L74.9315 125.693L77.4511 127.124L79.6969 128.44L82.3808 129.986L85.8316 131.989L87.3105 132.847L90.7066 134.793L94.4312 136.968V137.197V138.915V142.349V152.651V156.086V157.803V159.52V162.954V173.257V176.691V178.408V180.125V183.56V189.283C93.7192 188.711 92.9523 188.081 92.2402 187.509C90.597 186.193 88.9538 184.876 87.3105 183.56C86.1603 182.644 85.01 181.728 83.8598 180.812C82.819 180.011 81.7783 179.21 80.7376 178.408C80.409 178.179 80.0803 177.893 79.7517 177.664C78.9848 177.092 78.218 176.519 77.4511 175.89C76.3009 174.974 75.0958 174.115 73.9456 173.257C73.4526 172.913 73.0144 172.57 72.5214 172.169C71.5355 171.425 70.5495 170.738 69.6184 169.994C68.1395 168.907 66.6606 167.819 65.1816 166.732C64.36 166.102 63.4836 165.53 62.662 164.9C61.7309 164.213 60.7997 163.584 59.8685 162.897C59.1565 162.382 58.4444 161.867 57.7323 161.352C56.8012 160.722 55.9248 160.035 54.9936 159.405C54.172 158.833 53.3504 158.261 52.5835 157.688C51.8714 157.173 51.1594 156.715 50.4473 156.2C49.5709 155.571 48.6945 154.998 47.8729 154.426C46.9417 153.796 46.0106 153.167 45.1342 152.537C44.4221 152.022 43.6553 151.564 42.9432 151.049C42.012 150.419 41.0809 149.79 40.1497 149.16C39.4376 148.702 38.7256 148.187 38.0135 147.729C37.1919 147.157 36.3703 146.642 35.5486 146.126C34.727 145.554 33.8506 145.039 33.0838 144.467C31.9335 143.665 30.7833 142.921 29.6878 142.234C29.1948 141.891 28.6471 141.547 28.1541 141.261C27.0586 140.574 26.0179 139.888 25.0319 139.258C23.8269 138.514 22.7314 137.77 21.6907 137.14C21.3073 136.911 20.9786 136.682 20.5952 136.453C19.7736 135.938 19.0067 135.48 18.2947 135.022C16.3228 133.763 14.7343 132.79 13.6388 132.103C13.7484 131.989 13.8032 131.932 13.8032 131.874ZM128.501 178.237C117.108 186.65 106.591 195.293 99.3609 203.192C99.3609 203.192 97.9916 204.623 96.184 204.623C94.3765 204.623 93.0071 203.192 93.0071 203.192C85.7769 195.35 75.2602 186.65 63.8671 178.237C38.0135 159.177 7.99708 141.719 3.45079 139.086L8.98302 133.534C9.09257 133.42 9.31166 133.191 9.80463 133.534C9.91418 133.649 10.0237 133.763 10.1333 133.82C10.2428 133.878 13.5293 135.824 19.0067 139.315C33.8506 148.702 65.1269 169.193 95.1433 193.977H95.1981C95.2528 194.034 95.3076 194.034 95.3624 194.091L95.4172 194.148C95.4172 194.148 95.4172 194.148 95.4719 194.148H95.5267C95.5815 194.206 95.691 194.206 95.7458 194.263C95.8006 194.263 95.8006 194.263 95.8554 194.263C95.9649 194.263 96.0745 194.32 96.184 194.32C96.2936 194.32 96.4031 194.32 96.5127 194.263C96.5674 194.263 96.5674 194.263 96.6222 194.263C96.677 194.263 96.7865 194.206 96.8413 194.148H96.8961C96.8961 194.148 96.8961 194.148 96.9509 194.148L97.0056 194.091C97.0604 194.034 97.1152 194.034 97.1699 193.977H97.2247C127.241 169.193 158.463 148.702 173.361 139.315C178.893 135.824 182.125 133.878 182.235 133.82C182.399 133.763 182.509 133.649 182.618 133.534C182.782 133.42 183.111 133.248 183.385 133.534L188.917 139.086C184.316 141.719 154.3 159.234 128.501 178.237Z" fill="black"/>
<path d="M89.5562 137.027C89.5562 138.629 90.7613 139.889 92.2949 139.889C93.1713 139.889 93.9929 139.431 94.4859 138.744V137.027V136.798L90.7613 134.623C90.0492 135.195 89.5562 136.054 89.5562 137.027Z" fill="#87CCCD"/>
<path d="M92.2949 154.769C90.7613 154.769 89.5562 156.028 89.5562 157.631C89.5562 159.234 90.7613 160.493 92.2949 160.493C93.1713 160.493 93.9929 160.035 94.4859 159.348V157.631V155.914C93.9929 155.227 93.2261 154.769 92.2949 154.769Z" fill="#87CCCD"/>
<path d="M82.4356 160.493C83.9481 160.493 85.1743 159.211 85.1743 157.631C85.1743 156.05 83.9481 154.769 82.4356 154.769C80.923 154.769 79.6968 156.05 79.6968 157.631C79.6968 159.211 80.923 160.493 82.4356 160.493Z" fill="#87CCCD"/>
<path d="M87.3653 150.191C88.8779 150.191 90.104 148.909 90.104 147.329C90.104 145.748 88.8779 144.467 87.3653 144.467C85.8528 144.467 84.6266 145.748 84.6266 147.329C84.6266 148.909 85.8528 150.191 87.3653 150.191Z" fill="#87CCCD"/>
<path d="M77.5059 150.191C79.0184 150.191 80.2446 148.909 80.2446 147.329C80.2446 145.748 79.0184 144.467 77.5059 144.467C75.9933 144.467 74.7672 145.748 74.7672 147.329C74.7672 148.909 75.9933 150.191 77.5059 150.191Z" fill="#87CCCD"/>
<path d="M82.4356 139.888C83.9481 139.888 85.1743 138.606 85.1743 137.026C85.1743 135.445 83.9481 134.164 82.4356 134.164C80.923 134.164 79.6968 135.445 79.6968 137.026C79.6968 138.606 80.923 139.888 82.4356 139.888Z" fill="#87CCCD"/>
<path d="M92.2949 175.375C90.7613 175.375 89.5562 176.634 89.5562 178.236C89.5562 179.839 90.7613 181.098 92.2949 181.098C93.1713 181.098 93.9929 180.64 94.4859 179.953V178.236V176.519C93.9929 175.832 93.2261 175.375 92.2949 175.375Z" fill="#87CCCD"/>
<path d="M87.3653 170.796C88.8779 170.796 90.104 169.515 90.104 167.934C90.104 166.354 88.8779 165.072 87.3653 165.072C85.8528 165.072 84.6266 166.354 84.6266 167.934C84.6266 169.515 85.8528 170.796 87.3653 170.796Z" fill="#87CCCD"/>
<path d="M77.5059 170.796C79.0184 170.796 80.2446 169.515 80.2446 167.934C80.2446 166.354 79.0184 165.072 77.5059 165.072C75.9933 165.072 74.7672 166.354 74.7672 167.934C74.7672 169.515 75.9933 170.796 77.5059 170.796Z" fill="#87CCCD"/>
<path d="M85.1743 178.236C85.1743 176.634 83.9693 175.375 82.4356 175.375C81.1758 175.375 80.1351 176.29 79.8064 177.492C80.1351 177.721 80.4637 178.007 80.7924 178.236C81.8331 179.038 82.8738 179.839 83.9145 180.64C84.6814 180.182 85.1743 179.267 85.1743 178.236Z" fill="#87CCCD"/>
<path d="M72.5762 139.888C74.0887 139.888 75.3149 138.606 75.3149 137.026C75.3149 135.445 74.0887 134.164 72.5762 134.164C71.0636 134.164 69.8374 135.445 69.8374 137.026C69.8374 138.606 71.0636 139.888 72.5762 139.888Z" fill="#87CCCD"/>
<path d="M62.7167 139.888C64.2293 139.888 65.4554 138.606 65.4554 137.026C65.4554 135.445 64.2293 134.164 62.7167 134.164C61.2042 134.164 59.978 135.445 59.978 137.026C59.978 138.606 61.2042 139.888 62.7167 139.888Z" fill="#87CCCD"/>
<path d="M77.5059 129.586C78.437 129.586 79.2587 129.071 79.7516 128.327L77.5059 127.011L74.9862 125.58C74.8219 125.923 74.7672 126.324 74.7672 126.724C74.7672 128.327 76.027 129.586 77.5059 129.586Z" fill="#87CCCD"/>
<path d="M67.6466 129.586C69.1591 129.586 70.3853 128.304 70.3853 126.724C70.3853 125.143 69.1591 123.862 67.6466 123.862C66.134 123.862 64.9079 125.143 64.9079 126.724C64.9079 128.304 66.134 129.586 67.6466 129.586Z" fill="#87CCCD"/>
<path d="M57.7871 129.586C59.2997 129.586 60.5258 128.304 60.5258 126.724C60.5258 125.143 59.2997 123.862 57.7871 123.862C56.2745 123.862 55.0484 125.143 55.0484 126.724C55.0484 128.304 56.2745 129.586 57.7871 129.586Z" fill="#87CCCD"/>
<path d="M62.7168 119.283C63.0455 119.283 63.3741 119.226 63.7028 119.111L60.0329 116.993C60.3068 118.31 61.4023 119.283 62.7168 119.283Z" fill="#87CCCD"/>
<path d="M62.7167 160.493C64.2293 160.493 65.4554 159.211 65.4554 157.631C65.4554 156.05 64.2293 154.769 62.7167 154.769C61.2042 154.769 59.978 156.05 59.978 157.631C59.978 159.211 61.2042 160.493 62.7167 160.493Z" fill="#87CCCD"/>
<path d="M67.6466 150.191C69.1591 150.191 70.3853 148.909 70.3853 147.329C70.3853 145.748 69.1591 144.467 67.6466 144.467C66.134 144.467 64.9079 145.748 64.9079 147.329C64.9079 148.909 66.134 150.191 67.6466 150.191Z" fill="#87CCCD"/>
<path d="M67.6465 165.072C66.6058 165.072 65.6746 165.702 65.2365 166.618C66.7154 167.705 68.1943 168.793 69.6732 169.88C70.1114 169.365 70.3853 168.678 70.3853 167.934C70.3853 166.389 69.1802 165.072 67.6465 165.072Z" fill="#87CCCD"/>
<path d="M72.5762 160.493C74.0887 160.493 75.3149 159.211 75.3149 157.631C75.3149 156.05 74.0887 154.769 72.5762 154.769C71.0636 154.769 69.8374 156.05 69.8374 157.631C69.8374 159.211 71.0636 160.493 72.5762 160.493Z" fill="#87CCCD"/>
<path d="M52.8573 139.888C54.3698 139.888 55.596 138.606 55.596 137.026C55.596 135.445 54.3698 134.164 52.8573 134.164C51.3447 134.164 50.1186 135.445 50.1186 137.026C50.1186 138.606 51.3447 139.888 52.8573 139.888Z" fill="#87CCCD"/>
<path d="M47.9277 129.586C49.4402 129.586 50.6664 128.304 50.6664 126.724C50.6664 125.143 49.4402 123.862 47.9277 123.862C46.4151 123.862 45.1889 125.143 45.1889 126.724C45.1889 128.304 46.4151 129.586 47.9277 129.586Z" fill="#87CCCD"/>
<path d="M52.8573 119.282C54.3698 119.282 55.596 118.001 55.596 116.42C55.596 114.839 54.3698 113.558 52.8573 113.558C51.3447 113.558 50.1186 114.839 50.1186 116.42C50.1186 118.001 51.3447 119.282 52.8573 119.282Z" fill="#87CCCD"/>
<path d="M42.998 119.282C44.5106 119.282 45.7367 118.001 45.7367 116.42C45.7367 114.839 44.5106 113.558 42.998 113.558C41.4854 113.558 40.2593 114.839 40.2593 116.42C40.2593 118.001 41.4854 119.282 42.998 119.282Z" fill="#87CCCD"/>
<path d="M52.8574 154.769C51.8714 154.769 50.995 155.341 50.5021 156.143C51.2141 156.601 51.9262 157.116 52.6383 157.631C53.4599 158.203 54.2267 158.776 55.0484 159.348C55.377 158.89 55.5961 158.318 55.5961 157.631C55.5961 156.085 54.3911 154.769 52.8574 154.769Z" fill="#87CCCD"/>
<path d="M57.7871 150.191C59.2997 150.191 60.5258 148.909 60.5258 147.329C60.5258 145.748 59.2997 144.467 57.7871 144.467C56.2745 144.467 55.0484 145.748 55.0484 147.329C55.0484 148.909 56.2745 150.191 57.7871 150.191Z" fill="#87CCCD"/>
<path d="M47.9277 150.191C49.4402 150.191 50.6664 148.909 50.6664 147.329C50.6664 145.748 49.4402 144.467 47.9277 144.467C46.4151 144.467 45.1889 145.748 45.1889 147.329C45.1889 148.909 46.4151 150.191 47.9277 150.191Z" fill="#87CCCD"/>
<path d="M38.0682 144.467C36.9728 144.467 36.0964 145.096 35.6034 146.069C36.425 146.585 37.1919 147.157 38.0682 147.672C38.7803 148.13 39.4924 148.588 40.2045 149.103C40.5879 148.588 40.807 148.016 40.807 147.329C40.807 145.783 39.6019 144.467 38.0682 144.467Z" fill="#87CCCD"/>
<path d="M42.998 139.888C44.5106 139.888 45.7367 138.606 45.7367 137.026C45.7367 135.445 44.5106 134.164 42.998 134.164C41.4854 134.164 40.2593 135.445 40.2593 137.026C40.2593 138.606 41.4854 139.888 42.998 139.888Z" fill="#87CCCD"/>
<path d="M35.3296 106.119C35.3296 107.721 36.5346 108.98 38.0683 108.98C39.602 108.98 40.807 107.721 40.807 106.119C40.807 106.061 40.807 105.947 40.807 105.89L38.0683 104.344L36.8085 103.6C35.9321 104.115 35.3296 105.031 35.3296 106.119Z" fill="#87CCCD"/>
<path d="M30.9476 106.118C30.9476 104.859 30.1259 103.771 29.0304 103.371C28.4827 104.916 27.8802 106.748 27.1133 108.694C27.442 108.865 27.8254 108.923 28.2088 108.923C29.7425 108.98 30.9476 107.721 30.9476 106.118Z" fill="#87CCCD"/>
<path d="M33.1386 139.888C34.6512 139.888 35.8774 138.606 35.8774 137.026C35.8774 135.445 34.6512 134.164 33.1386 134.164C31.6261 134.164 30.3999 135.445 30.3999 137.026C30.3999 138.606 31.6261 139.888 33.1386 139.888Z" fill="#87CCCD"/>
<path d="M20.6499 136.34C20.9238 135.081 22.0193 134.165 23.2791 134.165C24.8128 134.165 26.0178 135.424 26.0178 137.027C26.0178 137.885 25.6344 138.629 25.0867 139.145C26.0726 139.774 27.1133 140.461 28.2088 141.148C28.7018 141.491 29.1948 141.778 29.7425 142.121C30.838 142.808 31.9883 143.552 33.1385 144.353C33.9601 144.868 34.7818 145.441 35.6034 146.013C36.0416 145.097 36.9727 144.41 38.0682 144.41C39.6019 144.41 40.8069 145.67 40.8069 147.272C40.8069 147.959 40.5879 148.532 40.2044 149.047C41.1356 149.676 42.0668 150.306 42.9979 150.935C43.71 151.451 44.4221 151.909 45.1889 152.424C46.1201 153.053 46.9965 153.683 47.9276 154.312C48.804 154.885 49.6256 155.514 50.502 156.087C50.995 155.286 51.8714 154.713 52.8573 154.713C54.391 154.713 55.5961 155.972 55.5961 157.575C55.5961 158.205 55.377 158.777 55.0483 159.292C55.9247 159.922 56.8559 160.551 57.787 161.238C58.4991 161.753 59.2112 162.268 59.9232 162.784C60.8544 163.47 61.7856 164.1 62.7167 164.787C63.5384 165.417 64.4148 165.989 65.2364 166.618C65.6746 165.703 66.6057 165.073 67.6464 165.073C69.1801 165.073 70.3852 166.332 70.3852 167.935C70.3852 168.679 70.1113 169.366 69.6731 169.881C70.659 170.568 71.5902 171.312 72.5762 172.056C73.0691 172.399 73.5073 172.743 74.0003 173.144C75.1506 174.002 76.3556 174.918 77.5059 175.776C78.2727 176.349 79.0395 176.921 79.8064 177.551C80.135 176.349 81.1757 175.433 82.4356 175.433C83.9692 175.433 85.1743 176.692 85.1743 178.295C85.1743 179.325 84.6813 180.184 83.9145 180.699C85.0647 181.615 86.215 182.53 87.3653 183.446C89.0085 184.763 90.6517 186.022 92.295 187.396C93.007 187.968 93.7739 188.598 94.4859 189.17V183.446V180.012C93.993 180.699 93.1714 181.157 92.295 181.157C90.7613 181.157 89.5562 179.898 89.5562 178.295C89.5562 176.692 90.7613 175.433 92.295 175.433C93.1714 175.433 93.993 175.891 94.4859 176.578V173.144V162.841V159.407C93.993 160.093 93.1714 160.551 92.295 160.551C90.7613 160.551 89.5562 159.292 89.5562 157.689C89.5562 156.087 90.7613 154.828 92.295 154.828C93.1714 154.828 93.993 155.286 94.4859 155.972V152.538V142.235V138.801C93.993 139.488 93.1714 139.946 92.295 139.946C90.7613 139.946 89.5562 138.687 89.5562 137.084C89.5562 136.111 90.0492 135.252 90.7613 134.737L87.3653 132.791L85.8863 131.933L82.4356 129.929L79.7516 128.384C79.2586 129.128 78.437 129.643 77.5059 129.643C75.9722 129.643 74.7671 128.384 74.7671 126.781C74.7671 126.381 74.8219 125.98 74.9862 125.637L72.5762 124.263L68.0299 121.63L67.6464 121.401L63.7027 119.112C63.374 119.226 63.0454 119.283 62.7167 119.283C61.4022 119.283 60.3067 118.31 60.0328 116.994L59.0469 116.421L57.787 115.677L50.1186 111.27L42.9979 107.149L40.8069 105.89C40.8069 105.947 40.8069 106.061 40.8069 106.119C40.8069 107.721 39.6019 108.981 38.0682 108.981C36.5345 108.981 35.3295 107.721 35.3295 106.119C35.3295 105.031 35.932 104.058 36.8084 103.6L33.1385 101.482L32.2621 100.967L30.1807 99.7654C30.0711 100.109 29.9616 100.509 29.7973 100.967C29.5782 101.711 29.3043 102.513 29.0304 103.371C30.1259 103.715 30.9475 104.802 30.9475 106.119C30.9475 107.721 29.7425 108.981 28.2088 108.981C27.8254 108.981 27.442 108.866 27.1133 108.752C26.7847 109.553 26.456 110.412 26.1274 111.27C25.744 112.186 25.3605 113.159 24.9223 114.075C25.6344 114.59 26.0726 115.448 26.0726 116.421C26.0726 118.024 24.8676 119.283 23.3339 119.283C23.06 119.283 22.7861 119.226 22.5123 119.112C22.0741 119.913 21.6359 120.714 21.1977 121.573C20.7047 122.431 20.157 123.347 19.664 124.206C20.5404 124.664 21.1429 125.637 21.1429 126.724C21.1429 128.327 19.9379 129.586 18.4042 129.586C17.6373 129.586 16.98 129.3 16.4871 128.785C15.6655 129.872 14.7891 130.902 13.8579 131.875C13.8031 131.933 13.7484 131.99 13.7484 132.047C14.8438 132.734 16.4323 133.707 18.4042 134.966C19.0615 135.367 19.8283 135.882 20.6499 136.34ZM33.1385 113.56C34.6722 113.56 35.8772 114.819 35.8772 116.421C35.8772 118.024 34.6722 119.283 33.1385 119.283C31.6048 119.283 30.3998 118.024 30.3998 116.421C30.3998 114.819 31.6596 113.56 33.1385 113.56ZM42.9979 113.56C44.5316 113.56 45.7367 114.819 45.7367 116.421C45.7367 118.024 44.5316 119.283 42.9979 119.283C41.4642 119.283 40.2592 118.024 40.2592 116.421C40.2592 114.819 41.519 113.56 42.9979 113.56ZM82.4356 134.165C83.9692 134.165 85.1743 135.424 85.1743 137.027C85.1743 138.629 83.9692 139.889 82.4356 139.889C80.9019 139.889 79.6968 138.629 79.6968 137.027C79.6968 135.424 80.9566 134.165 82.4356 134.165ZM77.5059 170.797C75.9722 170.797 74.7671 169.538 74.7671 167.935C74.7671 166.332 75.9722 165.073 77.5059 165.073C79.0395 165.073 80.2446 166.332 80.2446 167.935C80.2446 169.538 79.0395 170.797 77.5059 170.797ZM62.7167 160.494C61.1831 160.494 59.978 159.235 59.978 157.632C59.978 156.03 61.1831 154.77 62.7167 154.77C64.2504 154.77 65.4555 156.03 65.4555 157.632C65.4555 159.235 64.2504 160.494 62.7167 160.494ZM47.9276 150.191C46.3939 150.191 45.1889 148.932 45.1889 147.33C45.1889 145.727 46.3939 144.468 47.9276 144.468C49.4613 144.468 50.6664 145.727 50.6664 147.33C50.6664 148.932 49.4613 150.191 47.9276 150.191ZM33.1385 139.889C31.6048 139.889 30.3998 138.629 30.3998 137.027C30.3998 135.424 31.6048 134.165 33.1385 134.165C34.6722 134.165 35.8772 135.424 35.8772 137.027C35.8772 138.629 34.6722 139.889 33.1385 139.889ZM67.6464 144.468C69.1801 144.468 70.3852 145.727 70.3852 147.33C70.3852 148.932 69.1801 150.191 67.6464 150.191C66.1128 150.191 64.9077 148.932 64.9077 147.33C64.9077 145.784 66.1675 144.468 67.6464 144.468ZM52.8573 139.889C51.3237 139.889 50.1186 138.629 50.1186 137.027C50.1186 135.424 51.3237 134.165 52.8573 134.165C54.391 134.165 55.5961 135.424 55.5961 137.027C55.5961 138.629 54.391 139.889 52.8573 139.889ZM57.787 144.468C59.3207 144.468 60.5258 145.727 60.5258 147.33C60.5258 148.932 59.3207 150.191 57.787 150.191C56.2534 150.191 55.0483 148.932 55.0483 147.33C55.0483 145.784 56.3081 144.468 57.787 144.468ZM77.5059 150.191C75.9722 150.191 74.7671 148.932 74.7671 147.33C74.7671 145.727 75.9722 144.468 77.5059 144.468C79.0395 144.468 80.2446 145.727 80.2446 147.33C80.2446 148.932 79.0395 150.191 77.5059 150.191ZM62.7167 139.889C61.1831 139.889 59.978 138.629 59.978 137.027C59.978 135.424 61.1831 134.165 62.7167 134.165C64.2504 134.165 65.4555 135.424 65.4555 137.027C65.4555 138.629 64.2504 139.889 62.7167 139.889ZM57.787 129.586C56.2534 129.586 55.0483 128.327 55.0483 126.724C55.0483 125.121 56.2534 123.862 57.787 123.862C59.3207 123.862 60.5258 125.121 60.5258 126.724C60.5258 128.327 59.3207 129.586 57.787 129.586ZM47.9276 129.586C46.3939 129.586 45.1889 128.327 45.1889 126.724C45.1889 125.121 46.3939 123.862 47.9276 123.862C49.4613 123.862 50.6664 125.121 50.6664 126.724C50.6664 128.327 49.4613 129.586 47.9276 129.586ZM38.0682 123.862C39.6019 123.862 40.8069 125.121 40.8069 126.724C40.8069 128.327 39.6019 129.586 38.0682 129.586C36.5345 129.586 35.3295 128.327 35.3295 126.724C35.3295 125.121 36.5893 123.862 38.0682 123.862ZM40.2592 137.027C40.2592 135.424 41.4642 134.165 42.9979 134.165C44.5316 134.165 45.7367 135.424 45.7367 137.027C45.7367 138.629 44.5316 139.889 42.9979 139.889C41.4642 139.889 40.2592 138.629 40.2592 137.027ZM69.8374 157.632C69.8374 156.03 71.0425 154.77 72.5762 154.77C74.1098 154.77 75.3149 156.03 75.3149 157.632C75.3149 159.235 74.1098 160.494 72.5762 160.494C71.0425 160.494 69.8374 159.235 69.8374 157.632ZM87.3653 170.797C85.8316 170.797 84.6265 169.538 84.6265 167.935C84.6265 166.332 85.8316 165.073 87.3653 165.073C88.8989 165.073 90.104 166.332 90.104 167.935C90.104 169.538 88.8989 170.797 87.3653 170.797ZM82.4356 160.494C80.9019 160.494 79.6968 159.235 79.6968 157.632C79.6968 156.03 80.9019 154.77 82.4356 154.77C83.9692 154.77 85.1743 156.03 85.1743 157.632C85.1743 159.235 83.9692 160.494 82.4356 160.494ZM87.3653 150.191C85.8316 150.191 84.6265 148.932 84.6265 147.33C84.6265 145.727 85.8316 144.468 87.3653 144.468C88.8989 144.468 90.104 145.727 90.104 147.33C90.104 148.932 88.8989 150.191 87.3653 150.191ZM75.3149 137.027C75.3149 138.629 74.1098 139.889 72.5762 139.889C71.0425 139.889 69.8374 138.629 69.8374 137.027C69.8374 135.424 71.0425 134.165 72.5762 134.165C74.1098 134.165 75.3149 135.481 75.3149 137.027ZM28.2088 123.862C29.7425 123.862 30.9475 125.121 30.9475 126.724C30.9475 128.327 29.7425 129.586 28.2088 129.586C26.6751 129.586 25.4701 128.327 25.4701 126.724C25.4701 125.121 26.7299 123.862 28.2088 123.862ZM70.3852 126.724C70.3852 128.327 69.1801 129.586 67.6464 129.586C66.1128 129.586 64.9077 128.327 64.9077 126.724C64.9077 125.121 66.1128 123.862 67.6464 123.862C69.1801 123.862 70.3852 125.179 70.3852 126.724ZM52.8573 113.56C54.391 113.56 55.5961 114.819 55.5961 116.421C55.5961 118.024 54.391 119.283 52.8573 119.283C51.3237 119.283 50.1186 118.024 50.1186 116.421C50.1186 114.819 51.3784 113.56 52.8573 113.56Z" fill="white"/>
<path d="M38.0683 129.586C39.5809 129.586 40.807 128.304 40.807 126.724C40.807 125.143 39.5809 123.862 38.0683 123.862C36.5558 123.862 35.3296 125.143 35.3296 126.724C35.3296 128.304 36.5558 129.586 38.0683 129.586Z" fill="#87CCCD"/>
<path d="M28.2088 129.586C29.7214 129.586 30.9475 128.304 30.9475 126.724C30.9475 125.143 29.7214 123.862 28.2088 123.862C26.6963 123.862 25.4701 125.143 25.4701 126.724C25.4701 128.304 26.6963 129.586 28.2088 129.586Z" fill="#87CCCD"/>
<path d="M21.0881 126.723C21.0881 125.636 20.4856 124.663 19.6092 124.205C19.2258 124.834 18.7876 125.521 18.3494 126.151C17.7468 127.067 17.0895 127.925 16.4323 128.784C16.9252 129.299 17.5825 129.585 18.3494 129.585C19.883 129.585 21.0881 128.326 21.0881 126.723Z" fill="#87CCCD"/>
<path d="M33.1386 119.282C34.6512 119.282 35.8774 118.001 35.8774 116.42C35.8774 114.839 34.6512 113.558 33.1386 113.558C31.6261 113.558 30.3999 114.839 30.3999 116.42C30.3999 118.001 31.6261 119.282 33.1386 119.282Z" fill="#87CCCD"/>
<path d="M26.0179 116.421C26.0179 115.448 25.5797 114.646 24.8677 114.074C24.539 114.818 24.1556 115.619 23.8269 116.421C23.3887 117.336 22.9506 118.252 22.4576 119.111C22.7315 119.168 23.0053 119.283 23.2792 119.283C24.8129 119.283 26.0179 118.023 26.0179 116.421Z" fill="#87CCCD"/>
<path d="M26.0179 137.026C26.0179 135.423 24.8128 134.164 23.2791 134.164C22.0193 134.164 20.9238 135.08 20.65 136.339C20.9786 136.568 21.362 136.797 21.7455 137.026C22.7862 137.713 23.9364 138.4 25.0867 139.144C25.6892 138.686 26.0179 137.884 26.0179 137.026Z" fill="#87CCCD"/>
<path d="M161.311 119.282C162.823 119.282 164.05 118.001 164.05 116.42C164.05 114.839 162.823 113.558 161.311 113.558C159.798 113.558 158.572 114.839 158.572 116.42C158.572 118.001 159.798 119.282 161.311 119.282Z" fill="#87CCCD"/>
<path d="M163.502 106.119C163.502 105.661 163.611 105.26 163.776 104.917C163.228 103.429 162.845 102.055 162.461 100.967C162.352 100.509 162.187 100.109 162.078 99.7654L159.996 100.967L156.381 103.085L155.998 103.314C156.107 103.314 156.272 103.257 156.381 103.257C157.915 103.257 159.12 104.516 159.12 106.119C159.12 107.721 157.915 108.981 156.381 108.981C154.847 108.981 153.642 107.721 153.642 106.119C153.642 105.375 153.916 104.745 154.3 104.23L151.451 105.89L148.987 107.321C148.548 108.294 147.617 108.981 146.522 108.981C146.412 108.981 146.303 108.981 146.193 108.923L142.14 111.27L136.662 114.418L134.362 115.735C134.417 115.964 134.471 116.192 134.471 116.421C134.471 118.024 133.266 119.283 131.733 119.283C130.966 119.283 130.254 118.94 129.761 118.425L126.803 120.142L124.229 121.63L121.873 123.004L118.861 124.721C119.354 125.236 119.682 125.98 119.682 126.781C119.682 128.384 118.477 129.643 116.944 129.643C115.629 129.643 114.533 128.67 114.26 127.354L112.014 128.67L106.372 131.933L102.374 134.222C103.798 134.337 104.893 135.539 104.893 137.084C104.893 138.687 103.688 139.946 102.154 139.946C100.621 139.946 99.4157 138.687 99.4157 137.084C99.4157 136.569 99.5252 136.168 99.7443 135.768L97.7725 136.912V137.141V142.293V144.639C99.0323 144.926 99.9634 146.07 99.9634 147.444C99.9634 148.818 99.0323 149.962 97.7725 150.249V152.595V157.747V162.898V165.245C99.0323 165.531 99.9634 166.676 99.9634 168.049C99.9634 169.423 99.0323 170.568 97.7725 170.854V173.201V178.352V183.503V185.85C98.7036 186.022 99.4157 186.709 99.7443 187.567C100.566 186.938 101.333 186.308 102.154 185.621C103.086 184.877 103.962 184.19 104.893 183.446C105.605 182.874 106.372 182.301 107.084 181.729C107.961 181.042 108.782 180.413 109.659 179.726C109.439 179.325 109.275 178.81 109.275 178.295C109.275 176.692 110.48 175.433 112.014 175.433C112.781 175.433 113.493 175.776 114.04 176.349C115.026 175.605 116.012 174.861 116.944 174.117C117.382 173.773 117.82 173.43 118.258 173.144C119.463 172.228 120.668 171.312 121.873 170.453C122.64 169.881 123.407 169.309 124.174 168.736C124.119 168.507 124.064 168.221 124.064 167.992C124.064 166.39 125.269 165.13 126.803 165.13C127.405 165.13 127.953 165.359 128.391 165.645C129.487 164.844 130.637 164.043 131.733 163.241C131.952 163.07 132.116 162.955 132.335 162.784C133.814 161.753 135.238 160.723 136.662 159.693C137.429 159.178 138.141 158.662 138.908 158.147C138.853 157.976 138.853 157.804 138.853 157.632C138.853 156.03 140.058 154.77 141.592 154.77C142.14 154.77 142.633 154.942 143.071 155.228C144.221 154.427 145.371 153.626 146.522 152.882C146.686 152.767 146.905 152.653 147.07 152.481C148.548 151.451 150.027 150.478 151.451 149.505C152.218 148.989 152.985 148.474 153.697 147.959C153.642 147.73 153.642 147.501 153.642 147.272C153.642 145.67 154.847 144.41 156.381 144.41C157.038 144.41 157.586 144.639 158.079 145.04C159.175 144.296 160.27 143.609 161.311 142.922C161.749 142.636 162.132 142.407 162.516 142.121C163.831 141.262 165.036 140.461 166.241 139.717C167.062 139.145 167.884 138.629 168.705 138.172C168.541 137.828 168.432 137.427 168.432 136.97C168.432 135.367 169.637 134.108 171.17 134.108C172.047 134.108 172.814 134.566 173.306 135.195C174.347 134.566 175.278 133.993 176.1 133.478C177.086 132.849 177.908 132.333 178.565 131.933C178.51 131.875 178.455 131.818 178.455 131.761C177.743 131.017 177.086 130.273 176.429 129.414C176.319 129.414 176.21 129.472 176.1 129.472C174.566 129.472 173.361 128.212 173.361 126.61C173.361 126.209 173.416 125.866 173.58 125.522C172.759 124.263 171.937 122.946 171.17 121.573C171.17 121.516 171.116 121.516 171.116 121.458C170.568 120.542 170.075 119.569 169.637 118.654C168.925 118.139 168.486 117.28 168.486 116.307C168.486 116.307 168.486 116.307 168.486 116.25C167.665 114.59 166.953 112.873 166.295 111.27C166.295 111.213 166.241 111.156 166.241 111.098C165.912 110.24 165.529 109.381 165.255 108.58C164.214 108.351 163.502 107.321 163.502 106.119ZM151.451 139.889C149.918 139.889 148.713 138.629 148.713 137.027C148.713 135.424 149.918 134.165 151.451 134.165C152.985 134.165 154.19 135.424 154.19 137.027C154.19 138.629 152.985 139.889 151.451 139.889ZM121.873 160.494C120.34 160.494 119.135 159.235 119.135 157.632C119.135 156.03 120.34 154.77 121.873 154.77C123.407 154.77 124.612 156.03 124.612 157.632C124.612 159.235 123.407 160.494 121.873 160.494ZM107.084 170.797C105.55 170.797 104.345 169.538 104.345 167.935C104.345 166.332 105.55 165.073 107.084 165.073C108.618 165.073 109.823 166.332 109.823 167.935C109.823 169.538 108.618 170.797 107.084 170.797ZM112.014 134.165C113.548 134.165 114.753 135.424 114.753 137.027C114.753 138.629 113.548 139.889 112.014 139.889C110.48 139.889 109.275 138.629 109.275 137.027C109.275 135.424 110.535 134.165 112.014 134.165ZM121.873 134.165C123.407 134.165 124.612 135.424 124.612 137.027C124.612 138.629 123.407 139.889 121.873 139.889C120.34 139.889 119.135 138.629 119.135 137.027C119.135 135.424 120.394 134.165 121.873 134.165ZM151.451 113.56C152.985 113.56 154.19 114.819 154.19 116.421C154.19 118.024 152.985 119.283 151.451 119.283C149.918 119.283 148.713 118.024 148.713 116.421C148.713 114.819 149.973 113.56 151.451 113.56ZM116.944 144.468C118.477 144.468 119.682 145.727 119.682 147.33C119.682 148.932 118.477 150.191 116.944 150.191C115.41 150.191 114.205 148.932 114.205 147.33C114.205 145.784 115.465 144.468 116.944 144.468ZM112.014 154.77C113.548 154.77 114.753 156.03 114.753 157.632C114.753 159.235 113.548 160.494 112.014 160.494C110.48 160.494 109.275 159.235 109.275 157.632C109.275 156.03 110.535 154.77 112.014 154.77ZM124.064 147.33C124.064 145.727 125.269 144.468 126.803 144.468C128.337 144.468 129.542 145.727 129.542 147.33C129.542 148.932 128.337 150.191 126.803 150.191C125.269 150.191 124.064 148.932 124.064 147.33ZM131.733 139.889C130.199 139.889 128.994 138.629 128.994 137.027C128.994 135.424 130.199 134.165 131.733 134.165C133.266 134.165 134.471 135.424 134.471 137.027C134.471 138.629 133.266 139.889 131.733 139.889ZM149.26 126.724C149.26 128.327 148.055 129.586 146.522 129.586C144.988 129.586 143.783 128.327 143.783 126.724C143.783 125.121 144.988 123.862 146.522 123.862C148.055 123.862 149.26 125.179 149.26 126.724ZM141.592 134.165C143.126 134.165 144.331 135.424 144.331 137.027C144.331 138.629 143.126 139.889 141.592 139.889C140.058 139.889 138.853 138.629 138.853 137.027C138.853 135.424 140.113 134.165 141.592 134.165ZM153.642 126.724C153.642 125.121 154.847 123.862 156.381 123.862C157.915 123.862 159.12 125.121 159.12 126.724C159.12 128.327 157.915 129.586 156.381 129.586C154.847 129.586 153.642 128.327 153.642 126.724ZM136.662 123.862C138.196 123.862 139.401 125.121 139.401 126.724C139.401 128.327 138.196 129.586 136.662 129.586C135.129 129.586 133.924 128.327 133.924 126.724C133.924 125.121 135.183 123.862 136.662 123.862ZM107.084 144.468C108.618 144.468 109.823 145.727 109.823 147.33C109.823 148.932 108.618 150.191 107.084 150.191C105.55 150.191 104.345 148.932 104.345 147.33C104.345 145.784 105.605 144.468 107.084 144.468ZM136.662 150.191C135.129 150.191 133.924 148.932 133.924 147.33C133.924 145.727 135.129 144.468 136.662 144.468C138.196 144.468 139.401 145.727 139.401 147.33C139.401 148.932 138.196 150.191 136.662 150.191ZM166.241 129.586C164.707 129.586 163.502 128.327 163.502 126.724C163.502 125.121 164.707 123.862 166.241 123.862C167.774 123.862 168.979 125.121 168.979 126.724C168.979 128.327 167.774 129.586 166.241 129.586ZM161.311 119.283C159.777 119.283 158.572 118.024 158.572 116.421C158.572 114.819 159.777 113.56 161.311 113.56C162.845 113.56 164.05 114.819 164.05 116.421C164.05 118.024 162.845 119.283 161.311 119.283ZM141.592 113.56C143.126 113.56 144.331 114.819 144.331 116.421C144.331 118.024 143.126 119.283 141.592 119.283C140.058 119.283 138.853 118.024 138.853 116.421C138.853 114.819 140.113 113.56 141.592 113.56ZM126.803 123.862C128.337 123.862 129.542 125.121 129.542 126.724C129.542 128.327 128.337 129.586 126.803 129.586C125.269 129.586 124.064 128.327 124.064 126.724C124.064 125.121 125.324 123.862 126.803 123.862ZM102.154 154.77C103.688 154.77 104.893 156.03 104.893 157.632C104.893 159.235 103.688 160.494 102.154 160.494C100.621 160.494 99.4157 159.235 99.4157 157.632C99.4157 156.03 100.676 154.77 102.154 154.77ZM102.154 181.099C100.621 181.099 99.4157 179.84 99.4157 178.238C99.4157 176.635 100.621 175.376 102.154 175.376C103.688 175.376 104.893 176.635 104.893 178.238C104.893 179.84 103.688 181.099 102.154 181.099ZM116.944 170.797C115.41 170.797 114.205 169.538 114.205 167.935C114.205 166.332 115.41 165.073 116.944 165.073C118.477 165.073 119.682 166.332 119.682 167.935C119.682 169.538 118.477 170.797 116.944 170.797ZM131.733 160.494C130.199 160.494 128.994 159.235 128.994 157.632C128.994 156.03 130.199 154.77 131.733 154.77C133.266 154.77 134.471 156.03 134.471 157.632C134.471 159.235 133.266 160.494 131.733 160.494ZM146.522 150.191C144.988 150.191 143.783 148.932 143.783 147.33C143.783 145.727 144.988 144.468 146.522 144.468C148.055 144.468 149.26 145.727 149.26 147.33C149.26 148.932 148.055 150.191 146.522 150.191ZM161.311 139.889C159.777 139.889 158.572 138.629 158.572 137.027C158.572 135.424 159.777 134.165 161.311 134.165C162.845 134.165 164.05 135.424 164.05 137.027C164.05 138.629 162.845 139.889 161.311 139.889Z" fill="white"/>
<path d="M163.502 106.118C163.502 107.32 164.214 108.293 165.2 108.751C164.652 107.377 164.214 106.118 163.776 104.916C163.612 105.316 163.502 105.717 163.502 106.118Z" fill="#87CCCD"/>
<path d="M171.17 134.164C169.637 134.164 168.432 135.423 168.432 137.026C168.432 137.427 168.541 137.827 168.705 138.228C169.363 137.827 169.965 137.427 170.568 137.026C171.554 136.396 172.485 135.824 173.361 135.252C172.868 134.622 172.047 134.164 171.17 134.164Z" fill="#87CCCD"/>
<path d="M161.311 139.888C162.823 139.888 164.05 138.606 164.05 137.026C164.05 135.445 162.823 134.164 161.311 134.164C159.798 134.164 158.572 135.445 158.572 137.026C158.572 138.606 159.798 139.888 161.311 139.888Z" fill="#87CCCD"/>
<path d="M176.1 129.586C176.21 129.586 176.319 129.586 176.429 129.529C176.319 129.414 176.21 129.243 176.1 129.128C175.224 127.984 174.402 126.839 173.58 125.58C173.471 125.923 173.361 126.266 173.361 126.667C173.361 128.327 174.621 129.586 176.1 129.586Z" fill="#87CCCD"/>
<path d="M166.241 129.586C167.753 129.586 168.979 128.304 168.979 126.724C168.979 125.143 167.753 123.862 166.241 123.862C164.728 123.862 163.502 125.143 163.502 126.724C163.502 128.304 164.728 129.586 166.241 129.586Z" fill="#87CCCD"/>
<path d="M156.381 129.586C157.894 129.586 159.12 128.304 159.12 126.724C159.12 125.143 157.894 123.862 156.381 123.862C154.869 123.862 153.642 125.143 153.642 126.724C153.642 128.304 154.869 129.586 156.381 129.586Z" fill="#87CCCD"/>
<path d="M169.637 118.767C169.253 117.966 168.87 117.222 168.486 116.421C168.486 116.421 168.486 116.421 168.486 116.364C168.486 116.364 168.486 116.364 168.486 116.421C168.432 117.394 168.925 118.252 169.637 118.767Z" fill="#87CCCD"/>
<path d="M156.381 108.981C157.915 108.981 159.12 107.721 159.12 106.119C159.12 104.516 157.915 103.257 156.381 103.257C156.217 103.257 156.107 103.257 155.998 103.314L154.355 104.287C153.916 104.802 153.697 105.432 153.697 106.176C153.642 107.721 154.902 108.981 156.381 108.981Z" fill="#87CCCD"/>
<path d="M149.041 107.32L146.193 108.922C146.303 108.922 146.412 108.979 146.522 108.979C147.672 108.979 148.603 108.293 149.041 107.32Z" fill="#87CCCD"/>
<path d="M151.451 139.888C152.964 139.888 154.19 138.606 154.19 137.026C154.19 135.445 152.964 134.164 151.451 134.164C149.939 134.164 148.713 135.445 148.713 137.026C148.713 138.606 149.939 139.888 151.451 139.888Z" fill="#87CCCD"/>
<path d="M146.522 129.586C148.034 129.586 149.261 128.304 149.261 126.724C149.261 125.143 148.034 123.862 146.522 123.862C145.009 123.862 143.783 125.143 143.783 126.724C143.783 128.304 145.009 129.586 146.522 129.586Z" fill="#87CCCD"/>
<path d="M151.451 119.282C152.964 119.282 154.19 118.001 154.19 116.42C154.19 114.839 152.964 113.558 151.451 113.558C149.939 113.558 148.713 114.839 148.713 116.42C148.713 118.001 149.939 119.282 151.451 119.282Z" fill="#87CCCD"/>
<path d="M141.592 119.282C143.105 119.282 144.331 118.001 144.331 116.42C144.331 114.839 143.105 113.558 141.592 113.558C140.08 113.558 138.853 114.839 138.853 116.42C138.853 118.001 140.08 119.282 141.592 119.282Z" fill="#87CCCD"/>
<path d="M138.853 157.631C138.853 157.803 138.853 157.974 138.908 158.146C139.127 157.974 139.401 157.803 139.62 157.631C140.77 156.83 141.921 156.028 143.071 155.227C142.633 154.941 142.14 154.769 141.592 154.769C140.113 154.769 138.853 156.085 138.853 157.631Z" fill="#87CCCD"/>
<path d="M153.642 147.329C153.642 147.558 153.697 147.787 153.697 148.016C154.574 147.386 155.505 146.814 156.381 146.241C156.929 145.84 157.531 145.497 158.079 145.096C157.586 144.696 157.038 144.467 156.381 144.467C154.902 144.467 153.642 145.783 153.642 147.329Z" fill="#87CCCD"/>
<path d="M146.522 150.191C148.034 150.191 149.261 148.909 149.261 147.329C149.261 145.748 148.034 144.467 146.522 144.467C145.009 144.467 143.783 145.748 143.783 147.329C143.783 148.909 145.009 150.191 146.522 150.191Z" fill="#87CCCD"/>
<path d="M136.662 150.191C138.175 150.191 139.401 148.909 139.401 147.329C139.401 145.748 138.175 144.467 136.662 144.467C135.15 144.467 133.924 145.748 133.924 147.329C133.924 148.909 135.15 150.191 136.662 150.191Z" fill="#87CCCD"/>
<path d="M141.592 139.888C143.105 139.888 144.331 138.606 144.331 137.026C144.331 135.445 143.105 134.164 141.592 134.164C140.08 134.164 138.853 135.445 138.853 137.026C138.853 138.606 140.08 139.888 141.592 139.888Z" fill="#87CCCD"/>
<path d="M131.733 139.888C133.245 139.888 134.471 138.606 134.471 137.026C134.471 135.445 133.245 134.164 131.733 134.164C130.22 134.164 128.994 135.445 128.994 137.026C128.994 138.606 130.22 139.888 131.733 139.888Z" fill="#87CCCD"/>
<path d="M136.662 129.586C138.175 129.586 139.401 128.304 139.401 126.724C139.401 125.143 138.175 123.862 136.662 123.862C135.15 123.862 133.924 125.143 133.924 126.724C133.924 128.304 135.15 129.586 136.662 129.586Z" fill="#87CCCD"/>
<path d="M126.803 129.586C128.315 129.586 129.542 128.304 129.542 126.724C129.542 125.143 128.315 123.862 126.803 123.862C125.29 123.862 124.064 125.143 124.064 126.724C124.064 128.304 125.29 129.586 126.803 129.586Z" fill="#87CCCD"/>
<path d="M134.471 116.421C134.471 116.192 134.417 115.963 134.362 115.734L133.157 116.421L129.706 118.424C130.199 118.939 130.911 119.283 131.678 119.283C133.266 119.283 134.471 118.024 134.471 116.421Z" fill="#87CCCD"/>
<path d="M131.733 160.493C133.245 160.493 134.471 159.211 134.471 157.631C134.471 156.05 133.245 154.769 131.733 154.769C130.22 154.769 128.994 156.05 128.994 157.631C128.994 159.211 130.22 160.493 131.733 160.493Z" fill="#87CCCD"/>
<path d="M121.873 160.493C123.386 160.493 124.612 159.211 124.612 157.631C124.612 156.05 123.386 154.769 121.873 154.769C120.361 154.769 119.135 156.05 119.135 157.631C119.135 159.211 120.361 160.493 121.873 160.493Z" fill="#87CCCD"/>
<path d="M126.803 150.191C128.315 150.191 129.542 148.909 129.542 147.329C129.542 145.748 128.315 144.467 126.803 144.467C125.29 144.467 124.064 145.748 124.064 147.329C124.064 148.909 125.29 150.191 126.803 150.191Z" fill="#87CCCD"/>
<path d="M121.873 139.888C123.386 139.888 124.612 138.606 124.612 137.026C124.612 135.445 123.386 134.164 121.873 134.164C120.361 134.164 119.135 135.445 119.135 137.026C119.135 138.606 120.361 139.888 121.873 139.888Z" fill="#87CCCD"/>
<path d="M124.064 167.934C124.064 168.22 124.119 168.449 124.174 168.678C125.598 167.648 127.022 166.618 128.391 165.587C127.953 165.244 127.405 165.072 126.803 165.072C125.324 165.072 124.064 166.389 124.064 167.934Z" fill="#87CCCD"/>
<path d="M116.944 170.796C118.456 170.796 119.682 169.515 119.682 167.934C119.682 166.354 118.456 165.072 116.944 165.072C115.431 165.072 114.205 166.354 114.205 167.934C114.205 169.515 115.431 170.796 116.944 170.796Z" fill="#87CCCD"/>
<path d="M116.944 129.585C118.477 129.585 119.682 128.326 119.682 126.724C119.682 125.922 119.354 125.178 118.861 124.663L116.944 125.751L114.26 127.296C114.533 128.612 115.629 129.585 116.944 129.585Z" fill="#87CCCD"/>
<path d="M116.944 150.191C118.456 150.191 119.682 148.909 119.682 147.329C119.682 145.748 118.456 144.467 116.944 144.467C115.431 144.467 114.205 145.748 114.205 147.329C114.205 148.909 115.431 150.191 116.944 150.191Z" fill="#87CCCD"/>
<path d="M107.084 150.191C108.597 150.191 109.823 148.909 109.823 147.329C109.823 145.748 108.597 144.467 107.084 144.467C105.571 144.467 104.345 145.748 104.345 147.329C104.345 148.909 105.571 150.191 107.084 150.191Z" fill="#87CCCD"/>
<path d="M99.9634 147.329C99.9634 145.955 99.0323 144.81 97.7725 144.524V150.133C99.0323 149.904 99.9634 148.76 99.9634 147.329Z" fill="#87CCCD"/>
<path d="M112.014 139.888C113.526 139.888 114.753 138.606 114.753 137.026C114.753 135.445 113.526 134.164 112.014 134.164C110.501 134.164 109.275 135.445 109.275 137.026C109.275 138.606 110.501 139.888 112.014 139.888Z" fill="#87CCCD"/>
<path d="M102.154 139.888C103.688 139.888 104.893 138.629 104.893 137.026C104.893 135.538 103.798 134.279 102.374 134.164L99.7444 135.652C99.5253 136.053 99.4157 136.511 99.4157 136.969C99.4157 138.629 100.676 139.888 102.154 139.888Z" fill="#87CCCD"/>
<path d="M109.275 178.236C109.275 178.752 109.439 179.209 109.659 179.667C110.261 179.209 110.864 178.694 111.521 178.236C112.343 177.607 113.219 176.92 114.041 176.29C113.548 175.718 112.836 175.375 112.014 175.375C110.535 175.375 109.275 176.691 109.275 178.236Z" fill="#87CCCD"/>
<path d="M102.154 181.098C103.667 181.098 104.893 179.817 104.893 178.236C104.893 176.656 103.667 175.375 102.154 175.375C100.642 175.375 99.4157 176.656 99.4157 178.236C99.4157 179.817 100.642 181.098 102.154 181.098Z" fill="#87CCCD"/>
<path d="M107.084 170.796C108.597 170.796 109.823 169.515 109.823 167.934C109.823 166.354 108.597 165.072 107.084 165.072C105.571 165.072 104.345 166.354 104.345 167.934C104.345 169.515 105.571 170.796 107.084 170.796Z" fill="#87CCCD"/>
<path d="M99.9634 167.934C99.9634 166.56 99.0323 165.415 97.7725 165.129V170.738C99.0323 170.509 99.9634 169.365 99.9634 167.934Z" fill="#87CCCD"/>
<path d="M112.014 160.493C113.526 160.493 114.753 159.211 114.753 157.631C114.753 156.05 113.526 154.769 112.014 154.769C110.501 154.769 109.275 156.05 109.275 157.631C109.275 159.211 110.501 160.493 112.014 160.493Z" fill="#87CCCD"/>
<path d="M102.154 160.493C103.667 160.493 104.893 159.211 104.893 157.631C104.893 156.05 103.667 154.769 102.154 154.769C100.642 154.769 99.4157 156.05 99.4157 157.631C99.4157 159.211 100.642 160.493 102.154 160.493Z" fill="#87CCCD"/>
<path d="M97.7725 185.735V189.112C98.4298 188.597 99.0871 188.025 99.7443 187.509C99.4705 186.594 98.7036 185.964 97.7725 185.735Z" fill="#87CCCD"/>
<path d="M161.475 93.8115L97.7725 130.443V132.905L161.475 96.2155V93.8115Z" fill="#C1AB94"/>
<path d="M94.4858 130.443L30.8379 93.8115V96.2155L94.4858 132.905V130.443Z" fill="#C1AB94"/>
<path d="M129.213 62.0457H113L111.795 73.5503C112.343 74.7523 112.616 76.0688 112.616 77.4425C112.616 79.5603 111.904 81.5063 110.754 83.0517L109.494 94.6709H122.914L129.213 62.0457Z" fill="white"/>
<path d="M92.8428 68.2273V62.0457H78.9848L79.9708 69.4293C81.2306 68.6852 82.7095 68.2273 84.298 68.2273H92.8428V68.2273Z" fill="white"/>
<path d="M82.1617 86.3713L83.2572 94.6707H92.8427V86.6575H84.2979C83.531 86.6575 82.819 86.6003 82.1617 86.3713Z" fill="white"/>
<path d="M107.139 85.9707C106.098 86.4286 104.948 86.6575 103.798 86.6575H96.184V94.6708H106.262L107.139 85.9707Z" fill="#E55E70"/>
<path d="M96.1292 68.2264H103.743C105.66 68.2264 107.413 68.856 108.837 69.9436L109.659 62.1021H96.0744V68.2264H96.1292Z" fill="#E55E70"/>
<path d="M79.916 94.6709L78.6014 84.4827C76.6843 82.7655 75.4793 80.2471 75.4793 77.4425C75.4793 75.4964 76.027 73.7221 77.013 72.2339L75.6984 62.0457H61.7309L67.4822 94.6709H79.916V94.6709Z" fill="#E55E70"/>
<path d="M60.5258 47.6785H131.733C131.897 47.5068 132.116 47.3351 132.39 47.2779C136.169 45.9614 138.799 43.0423 138.963 40.0087C138.963 39.3791 138.853 35.6015 136.169 34.285C134.581 33.4837 132.992 33.8843 132.335 34.0561C131.842 35.0863 131.185 35.9449 130.418 36.689C128.556 38.5206 126.2 38.7495 125.05 38.864H124.831C124.776 38.864 124.721 38.864 124.667 38.864C123.845 38.864 123.133 38.1771 123.023 37.3186C122.914 36.4028 123.571 35.5442 124.502 35.4297H124.721C125.653 35.3153 127.132 35.2008 128.172 34.1705C129.542 32.9113 130.308 30.5646 130.144 28.2179C130.035 26.329 129.377 24.7836 128.391 24.0968C126.31 22.6086 122.421 22.6658 119.573 25.4705C119.025 25.9856 118.203 26.1001 117.546 25.6422C116.889 25.2415 116.615 24.383 116.889 23.6389C117.875 20.6053 116.944 17.2283 114.643 15.225C111.795 12.7638 107.468 12.5921 104.126 14.7671C103.633 15.0533 103.031 15.1105 102.538 14.8816C102.045 14.6526 101.661 14.1375 101.607 13.5651C101.168 9.8447 97.7177 6.86836 94.1025 7.15454C91.1447 7.38349 88.5703 9.61575 87.8035 12.5921C87.6391 13.2217 87.0914 13.7368 86.4889 13.8513C85.8316 13.9658 85.2291 13.6796 84.8456 13.1072C82.7642 9.78746 79.2039 7.84139 75.4792 8.12758C70.8234 8.471 67.0439 12.1914 66.4414 16.9421C66.3866 17.4572 66.1128 17.8579 65.7293 18.1441C65.3459 18.4303 64.853 18.4875 64.4148 18.373L64.2504 18.3158C62.662 17.8579 59.5946 17.3428 57.075 19.2888C54.6649 21.1204 54.391 24.0968 54.2815 25.2415V25.356C54.1719 27.8744 55.2126 29.8205 55.8699 30.8508C57.2393 30.2784 58.7182 29.935 60.2519 29.9922C61.1831 29.9922 61.8951 30.7935 61.8404 31.7666C61.8404 32.7396 61.0735 33.4837 60.1424 33.4264C57.0202 33.312 54.1719 35.258 53.3503 38.0054C52.8573 39.6653 53.186 41.7258 54.2267 43.5002C55.4317 45.5607 57.2941 46.9344 59.4851 47.3351C60.0328 47.2206 60.3067 47.3923 60.5258 47.6785ZM114.917 37.4331C117.382 37.4331 119.354 39.5508 119.408 42.1265C119.408 42.9851 118.751 43.6719 117.929 43.6719C117.108 43.6719 116.451 42.9851 116.451 42.1265C116.451 41.2679 115.793 40.5811 114.972 40.5811C114.15 40.5811 113.493 39.8942 113.493 39.0357C113.493 38.1771 114.095 37.4331 114.917 37.4331ZM104.181 23.0665C104.838 22.6658 105.66 22.4369 106.427 22.4369C108.892 22.4369 110.864 24.4974 110.864 27.0731C110.864 27.9317 110.206 28.6185 109.385 28.6185C108.563 28.6185 107.906 27.9317 107.906 27.0731C107.906 26.7869 107.851 26.558 107.687 26.2718C107.248 25.5277 106.372 25.2988 105.66 25.6994C104.948 26.1573 104.017 25.8711 103.633 25.127C103.195 24.4402 103.469 23.5244 104.181 23.0665ZM89.8849 30.3929C91.309 30.2784 92.6784 30.6791 93.9382 31.5949C95.9101 30.4501 98.4297 30.5646 100.292 31.9383C102.647 33.6554 103.469 36.9179 102.209 39.5508C101.826 40.4094 100.84 40.7528 100.018 40.2949C99.1966 39.8943 98.8679 38.864 99.3061 38.0054C99.8539 36.9179 99.4704 35.487 98.4297 34.7429C97.389 33.9988 95.9101 34.1133 94.9789 35.0291C94.3216 35.6587 93.3357 35.6587 92.6784 34.9718C92.1854 34.4567 91.309 33.7126 90.1588 33.8271H90.104C88.7894 33.8843 87.5844 35.1436 87.4201 36.5745C87.2557 37.8909 88.1321 38.9212 88.5155 39.3219L87.3653 40.5811L86.215 41.7831C84.6813 40.1804 83.9145 38.1199 84.1884 36.1166C84.517 33.0258 87.0914 30.5073 89.8849 30.3929ZM79.423 20.2619C79.8612 18.2013 81.5592 16.7132 83.5858 16.7132C84.5718 16.7132 85.5029 17.0566 86.2698 17.6862C86.9271 18.2013 87.0366 19.1744 86.4889 19.8612C85.9959 20.5481 85.0647 20.6625 84.4075 20.0902C84.2979 19.9757 84.1336 19.9185 83.9693 19.8612C83.2572 19.6323 82.4903 20.0902 82.326 20.8342C82.1617 21.5783 81.5592 22.0935 80.8471 22.0935C80.7376 22.0935 80.628 22.0935 80.5732 22.0362C79.8064 21.9218 79.2586 21.0632 79.423 20.2619ZM69.6731 33.7126C69.8374 31.137 71.9736 29.1336 74.4385 29.3054C75.2601 29.3626 75.8626 30.1067 75.8079 30.9652C75.7531 31.8238 75.041 32.4534 74.2194 32.3962C74.1646 32.3962 74.0551 32.3962 74.0003 32.3962C73.1239 32.5106 72.5214 33.312 72.5762 34.2278C72.6857 35.0863 72.138 35.8876 71.3163 36.0021C70.4947 36.1166 69.7279 35.5442 69.6183 34.6857C69.6731 34.3995 69.6183 34.0561 69.6731 33.7126Z" fill="#FBEDA4"/>
<path d="M61.0735 58.6111H77.0677H94.486H111.521H129.87L131.294 51.113H59.7589L61.0735 58.6111Z" fill="white"/>
<path d="M84.1336 36.0595C83.8598 38.0628 84.6266 40.1233 86.1603 41.7259L87.3106 40.524L88.4608 39.2647C88.0774 38.8641 87.201 37.8338 87.3653 36.5174C87.5297 35.0864 88.7347 33.8272 90.0493 33.77H90.1041C91.2543 33.6555 92.1855 34.3996 92.6237 34.9147C93.2262 35.5443 94.2669 35.6016 94.9242 34.9719C95.8554 34.0562 97.3891 33.9417 98.375 34.6858C99.361 35.4298 99.7444 36.8608 99.2514 37.9483C98.868 38.8068 99.1966 39.8371 99.9635 40.2378C100.785 40.6384 101.771 40.295 102.154 39.4937C103.414 36.8608 102.593 33.5983 100.237 31.8811C98.375 30.5074 95.8554 30.393 93.8835 31.5377C92.6237 30.6219 91.2543 30.2213 89.8302 30.3357C87.0915 30.5074 84.5171 33.0259 84.1336 36.0595Z" fill="black"/>
<path d="M125.817 13.7372C126.748 13.8517 127.515 13.1648 127.625 12.1918C127.679 11.8484 127.953 9.10099 130.089 7.7273C130.144 7.67006 130.199 7.67006 130.254 7.61282C130.199 9.21547 130.582 10.7609 131.459 12.0201C132.171 13.0504 133.704 14.3668 135.348 14.3668C135.731 14.3668 136.06 14.3096 136.443 14.1951C138.47 13.451 138.853 11.1043 138.963 10.303C139.072 9.55889 139.346 6.92598 137.539 5.03715C136.991 4.46478 136.334 4.12135 135.676 3.8924C136.936 3.26279 138.306 3.54898 138.306 3.54898C139.182 3.77793 139.894 4.29306 140.277 4.57925C140.77 4.97991 141.209 5.43781 141.592 5.95294C142.14 6.69703 143.18 6.86874 143.893 6.29637C144.605 5.724 144.769 4.63649 144.221 3.8924C143.673 3.09108 143.016 2.46147 142.249 1.83186C141.702 1.4312 140.606 0.515406 139.018 0.171982C138.689 0.114745 135.676 -0.514865 133.102 1.48844C132.39 2.06081 131.787 2.8049 131.294 3.66345C130.911 3.72069 130.254 3.83517 129.542 4.17859C129.323 4.29306 128.83 4.52201 128.337 4.8082C124.941 6.98321 124.393 11.1043 124.338 11.8484C124.228 12.7642 124.886 13.6227 125.817 13.7372ZM133.65 6.92598C134.307 6.98321 134.91 7.04045 135.238 7.44111C135.95 8.1852 135.786 9.50165 135.731 9.67337C135.567 10.6464 135.402 10.8753 135.348 10.8753C135.129 10.8753 134.471 10.4747 134.088 9.95955C133.595 9.2727 133.431 8.07072 133.65 6.92598Z" fill="black"/>
<path d="M148.22 19.5752C149.26 21.1206 150.849 22.1509 152.602 22.4371C156.162 23.0094 159.558 20.491 160.161 16.7133C162.571 13.9087 162.352 9.50143 159.668 6.98299C158.736 6.0672 157.531 5.49482 156.272 5.32311C154.574 5.03693 152.876 5.43759 151.506 6.46786C147.891 6.23891 144.714 9.10077 144.495 12.8784C144.276 15.7403 145.755 18.3732 148.22 19.5752ZM147.672 12.0199C147.891 11.333 148.329 10.7607 148.932 10.3028C149.534 9.84485 150.301 9.55867 151.013 9.55867C151.232 9.55867 151.397 9.55867 151.616 9.6159C152.054 9.73038 152.547 9.55867 152.93 9.27248C154.409 7.89879 156.655 8.0705 157.97 9.67314C159.229 11.1613 159.12 13.4508 157.696 14.8245C157.422 15.1107 157.258 15.4541 157.203 15.8548C157.203 15.9692 157.203 16.0837 157.148 16.141C156.819 18.1443 155.012 19.5752 153.095 19.2318C152.054 19.0601 151.123 18.3732 150.575 17.4002C150.411 17.114 150.137 16.8278 149.808 16.7133C147.891 16.141 147.015 13.9659 147.672 12.0199Z" fill="black"/>
<path d="M149.753 16.8276C150.082 16.9421 150.356 17.171 150.52 17.5144C151.068 18.4875 151.999 19.1743 153.04 19.346C154.957 19.6895 156.819 18.2585 157.093 16.2552C157.093 16.1408 157.093 16.0263 157.148 15.969C157.203 15.5684 157.367 15.225 157.641 14.9388C159.065 13.5651 159.175 11.2756 157.915 9.78742C156.6 8.24201 154.354 8.0703 152.876 9.38676C152.547 9.73018 152.054 9.84466 151.561 9.73018C151.397 9.67295 151.178 9.67295 150.958 9.67295C150.192 9.67295 149.48 9.9019 148.877 10.417C148.329 10.8177 147.891 11.4473 147.617 12.1341C147.015 13.9657 147.891 16.1408 149.753 16.8276Z" fill="#FBEDA4"/>
<path d="M103.743 83.2231C106.81 83.2231 109.275 80.6474 109.275 77.4421C109.275 74.2368 106.81 71.6611 103.743 71.6611H84.2431C81.1758 71.6611 78.7109 74.2368 78.7109 77.4421C78.7109 80.6474 81.1758 83.2231 84.2431 83.2231H103.743Z" fill="#BBCB4B"/>
<path d="M114.917 40.5245C115.739 40.5245 116.396 41.2114 116.396 42.0699C116.396 42.9285 117.053 43.6153 117.875 43.6153C118.696 43.6153 119.354 42.9285 119.354 42.0699C119.354 39.4942 117.327 37.4337 114.862 37.3765C114.041 37.3765 113.383 38.0633 113.383 38.9219C113.383 39.7804 114.095 40.5245 114.917 40.5245Z" fill="black"/>
<path d="M80.6281 22.0933C80.7376 22.0933 80.8472 22.1506 80.9019 22.1506C81.614 22.1506 82.2165 21.6354 82.3809 20.8913C82.6 20.1473 83.312 19.6894 84.0241 19.9183C84.1884 19.9755 84.298 20.0328 84.4623 20.1473C85.1196 20.6624 86.0508 20.5479 86.5437 19.9183C87.0367 19.2315 86.9271 18.2584 86.3246 17.7433C85.5578 17.1137 84.6266 16.7703 83.6407 16.7703C81.614 16.7703 79.8612 18.2584 79.4778 20.319C79.2587 21.0631 79.8065 21.9216 80.6281 22.0933Z" fill="black"/>
<path d="M105.66 25.7572C106.372 25.2993 107.248 25.5854 107.687 26.3295C107.796 26.5585 107.906 26.8447 107.906 27.1308C107.906 27.9894 108.563 28.6763 109.385 28.6763C110.206 28.6763 110.864 27.9894 110.864 27.1308C110.864 24.5552 108.892 22.4946 106.427 22.4946C105.66 22.4946 104.838 22.7236 104.181 23.1242C103.469 23.5821 103.25 24.4979 103.633 25.242C104.071 25.9289 104.948 26.2151 105.66 25.7572Z" fill="black"/>
<path d="M71.3711 36.0596C72.1927 35.9451 72.7404 35.1438 72.6309 34.2852C72.5213 33.3694 73.1786 32.5681 74.055 32.4536C74.1098 32.4536 74.2194 32.4536 74.2741 32.4536C75.0957 32.5109 75.8078 31.8813 75.8626 31.0227C75.9174 30.1642 75.3148 29.4201 74.4932 29.3628C72.0284 29.1911 69.8374 31.1372 69.7278 33.7701C69.7278 34.1135 69.7278 34.3997 69.7826 34.7431C69.8374 35.5445 70.5495 36.1741 71.3711 36.0596Z" fill="black"/>
</svg>
